<svg xmlns="http://www.w3.org/2000/svg" viewBox="0 0 300 70" width="300" height="70" role="img">
  <title>Ecclesiastes 3:1-10</title>
  <defs>
    <path id="g0" d="M46 0Q61 9 72.5 34.0Q84 59 92.5 91.0Q101 123 105.0 157.5Q109 192 109 221Q109 266 99.5 307.0Q90 348 73 369Q89 385 99.5 411.5Q110 438 116.0 468.5Q122 499 124.0 531.0Q126 563 126 591Q126 614 125.0 631.0Q124 648 123 657Q100 665 75.5 690.0Q51 715 39 744Q103 737 160.5 734.5Q218 732 269 732Q378 732 445.0 739.0Q512 746 551 746Q559 746 565.0 745.5Q571 745 576 744Q570 733 563.5 704.0Q557 675 551.0 640.5Q545 606 540.5 573.5Q536 541 534 525L527 522Q492 542 476.5 567.0Q461 592 453 627Q439 638 418.0 641.0Q397 644 365 644Q339 644 315.0 643.0Q291 642 277 642Q269 603 265.0 547.0Q261 491 259 428Q273 426 287.5 425.5Q302 425 310 425Q331 425 351.5 441.5Q372 458 391 484Q396 472 401.0 456.5Q406 441 412.5 425.5Q419 410 427.0 396.0Q435 382 446 375Q437 366 428.5 352.0Q420 338 412.5 322.0Q405 306 398.5 290.0Q392 274 387 261Q381 272 373.0 285.0Q365 298 356.0 309.0Q347 320 336.5 327.5Q326 335 314 335Q305 335 288.0 334.0Q271 333 257 330V312Q257 249 258.5 192.5Q260 136 264 94L433 77Q447 139 482.5 187.0Q518 235 559 280L565 278Q562 255 561.0 232.5Q560 210 560 189Q560 137 565.0 95.0Q570 53 577 32Q560 30 543.5 26.5Q527 23 508.0 15.0Q489 7 467.5 -7.0Q446 -21 420 -43Q336 -18 254.0 -5.5Q172 7 106 7Q74 7 47 -3Z"/>
    <path id="g1" d="M287 -31Q269 -20 238.0 -8.5Q207 3 170.5 12.0Q134 21 97.0 27.0Q60 33 30 33Q37 43 42.5 63.0Q48 83 52.0 109.5Q56 136 58.0 167.0Q60 198 60 231Q60 285 54.5 332.5Q49 380 38 415Q92 424 149.0 442.5Q206 461 255 484Q288 463 332.0 447.0Q376 431 421 423Q402 385 368.5 361.5Q335 338 300 338Q277 338 245.0 354.0Q213 370 182 399Q187 361 189.5 323.5Q192 286 192 248Q192 215 189.5 175.5Q187 136 182 105Q204 96 238.5 88.0Q273 80 301 78Q307 116 332.5 144.5Q358 173 400 185Q399 177 399.0 163.0Q399 149 399 129Q399 91 402.5 68.0Q406 45 411 28Q395 25 376.5 18.5Q358 12 340.5 3.5Q323 -5 308.5 -14.0Q294 -23 287 -31Z"/>
    <path id="g2" d="M18 -21Q44 -8 57.0 22.0Q70 52 70 92V605Q70 630 69.0 650.0Q68 670 64.5 687.0Q61 704 55.0 720.0Q49 736 40 753Q60 746 87 746Q120 746 156.5 757.0Q193 768 235 788Q215 764 207.5 724.0Q200 684 200 632V148Q200 107 203.0 80.0Q206 53 213.5 32.0Q221 11 235.0 -8.5Q249 -28 270 -55L264 -64Q237 -51 219.0 -43.5Q201 -36 188.5 -30.0Q176 -24 166.5 -17.5Q157 -11 147 0Q118 -12 84.5 -20.0Q51 -28 19 -28Z"/>
    <path id="g3" d="M236 -32Q217 -18 189.0 -6.0Q161 6 131.5 14.5Q102 23 74.5 28.0Q47 33 29 33Q37 46 43.0 69.5Q49 93 52.5 120.5Q56 148 57.5 177.0Q59 206 59 230Q59 291 51.5 331.5Q44 372 37 395Q80 403 115.5 426.0Q151 449 186 484Q227 476 287.0 470.5Q347 465 406 463Q403 445 403 418Q403 397 405.0 372.5Q407 348 410.0 324.0Q413 300 418.0 278.0Q423 256 429 240Q368 235 305.0 226.5Q242 218 182 208Q181 179 178.0 151.0Q175 123 173 102Q185 97 203.5 93.0Q222 89 243.0 85.5Q264 82 284.0 79.5Q304 77 318 76Q323 107 342.5 129.0Q362 151 409 165Q408 153 408.0 141.5Q408 130 408 119Q408 85 410.5 65.5Q413 46 420 27Q401 25 375.0 19.5Q349 14 323.0 5.5Q297 -3 273.5 -12.5Q250 -22 236 -32ZM172 394Q177 352 179.5 320.0Q182 288 183 261L300 290Q295 310 291.5 332.0Q288 354 288 377Q265 377 232.5 381.5Q200 386 172 394Z"/>
    <path id="g4" d="M190 403Q188 387 187.5 372.0Q187 357 187 337Q187 317 188.0 297.0Q189 277 191 261Q210 268 230.5 273.0Q251 278 276.5 282.0Q302 286 334.0 289.0Q366 292 409 295Q406 260 406 193Q406 136 408.0 91.5Q410 47 415 24Q384 24 352.0 20.0Q320 16 291.0 9.0Q262 2 237.0 -8.0Q212 -18 195 -30Q183 -19 168.5 -11.0Q154 -3 134.0 2.5Q114 8 87.0 11.5Q60 15 23 17Q25 48 35.5 80.5Q46 113 62 133Q85 133 134.0 116.0Q183 99 264 63Q270 95 273.0 121.5Q276 148 276 177Q276 195 276.0 203.0Q276 211 275 218Q231 214 173.0 203.5Q115 193 64 179Q68 222 69.0 245.5Q70 269 70 288Q70 333 65.5 367.0Q61 401 51 430Q89 430 133.0 443.0Q177 456 243 484Q306 452 431 443Q413 400 390.0 380.5Q367 361 333 361Q318 361 299.0 364.0Q280 367 260.5 373.0Q241 379 222.5 386.5Q204 394 190 403Z"/>
    <path id="g5" d="M198 455V88Q198 25 225 15V0Q193 -5 165.0 -12.0Q137 -19 107 -28H102Q68 18 68 80V428L31 444V455Q66 460 107.0 468.5Q148 477 180 485ZM40 650Q57 679 81.5 707.5Q106 736 136 752Q142 744 154.5 733.0Q167 722 181.5 711.0Q196 700 209.5 690.5Q223 681 230 677Q196 653 172.5 630.5Q149 608 132 574Q126 581 113.5 591.5Q101 602 87.0 613.0Q73 624 60.0 634.0Q47 644 40 650Z"/>
    <path id="g6" d="M180 94Q202 92 225.5 91.0Q249 90 284 82V223Q255 212 228.0 204.5Q201 197 182 195ZM438 413Q422 390 417.5 352.0Q413 314 413 241Q413 193 415.5 164.5Q418 136 423.0 119.5Q428 103 437.0 96.5Q446 90 459 87V76Q445 71 429.5 58.5Q414 46 399.0 31.0Q384 16 372.0 0.0Q360 -16 354 -28Q333 -14 316.0 9.0Q299 32 289 55L220 -28Q182 -5 136.5 7.0Q91 19 33 20Q43 46 45.0 85.5Q47 125 47 165Q47 189 44.0 210.5Q41 232 34 249Q56 246 82 246Q110 246 139.5 248.5Q169 251 196.0 256.0Q223 261 245.5 267.5Q268 274 283 282V381Q249 366 212.0 356.0Q175 346 151 346Q134 346 119.5 349.5Q105 353 93.0 363.5Q81 374 71.5 393.0Q62 412 55 442Q61 442 63.5 441.5Q66 441 78 441Q150 441 202.0 454.0Q254 467 283 484Q316 448 351.5 430.5Q387 413 438 413Z"/>
    <path id="g7" d="M219 384V163Q219 111 244.5 85.0Q270 59 308 57V43Q291 37 272.0 28.0Q253 19 235.0 9.5Q217 0 201.0 -10.0Q185 -20 176 -28Q153 -14 129.0 -1.0Q105 12 89 20V392H6V403Q50 420 89 455V487Q89 495 87.5 512.5Q86 530 84.0 548.5Q82 567 79.0 582.5Q76 598 72 603Q117 606 155.0 621.0Q193 636 236 659Q232 649 229.0 628.0Q226 607 223.5 583.5Q221 560 220.0 538.5Q219 517 219 508V455H360V451Q344 434 331.5 413.0Q319 392 314 372Z"/>
    <path id="g9" d="M175 -10Q167 -2 152.0 9.5Q137 21 119.0 32.0Q101 43 82.0 51.5Q63 60 47 63Q53 84 55.0 102.0Q57 120 57 136Q57 151 55.5 163.0Q54 175 52 186Q58 187 64.0 187.5Q70 188 76 188Q112 188 147.0 168.5Q182 149 211 96L300 117Q300 119 299.5 134.5Q299 150 299.0 171.5Q299 193 298.0 218.0Q297 243 297.0 265.0Q297 287 296.5 302.5Q296 318 296 321L195 380L155 357L114 410L155 456L195 430L290 469Q290 495 288.5 519.5Q287 544 287 570Q287 594 290 620Q271 603 247.0 595.0Q223 587 197 587Q149 587 106.0 609.5Q63 632 41 674Q63 678 89.0 684.0Q115 690 140.0 697.5Q165 705 187.5 714.5Q210 724 227 735Q272 703 324.0 684.0Q376 665 430 665Q433 665 436.5 665.5Q440 666 444 666Q438 648 434.0 622.5Q430 597 427.0 568.0Q424 539 423.0 509.0Q422 479 422 452Q402 446 387.5 441.0Q373 436 360.0 430.5Q347 425 333.0 419.5Q319 414 301 407Q322 395 344.5 385.5Q367 376 385.5 369.0Q404 362 416.0 357.0Q428 352 428 349Q428 339 429.0 314.0Q430 289 432.0 257.5Q434 226 436.5 191.5Q439 157 441.5 127.5Q444 98 447.0 77.5Q450 57 452 54Q422 54 382.0 48.0Q342 42 302.0 33.0Q262 24 227.5 12.5Q193 1 175 -10Z"/>
    <path id="g10" d="M48 22Q65 51 89.5 79.5Q114 108 144 124Q150 116 162.5 105.0Q175 94 189.5 83.0Q204 72 217.5 62.5Q231 53 238 49Q204 25 180.5 2.5Q157 -20 140 -54Q134 -47 121.5 -36.5Q109 -26 95.0 -15.0Q81 -4 68.0 6.0Q55 16 48 22ZM48 353Q65 382 89.5 410.5Q114 439 144 455Q150 447 162.5 436.0Q175 425 189.5 414.0Q204 403 217.5 393.5Q231 384 238 380Q204 356 180.5 333.5Q157 311 140 277Q134 284 121.5 294.5Q109 305 95.0 316.0Q81 327 68.0 337.0Q55 347 48 353Z"/>
    <path id="g11" d="M308 172Q308 132 325.0 118.0Q342 104 365 104Q382 104 393 108Q385 98 368.0 84.0Q351 70 331.5 54.5Q312 39 292.5 24.0Q273 9 260 -2Q243 6 219.0 25.0Q195 44 171 56V605Q160 579 131.0 565.0Q102 551 69 551Q32 551 0 568Q26 576 48.0 593.5Q70 611 88.0 634.5Q106 658 120.0 684.5Q134 711 144 736Q162 715 184.0 702.5Q206 690 229.0 682.5Q252 675 272.5 671.0Q293 667 308 664Z"/>
    <path id="g12" d="M61 336Q87 323 116.5 320.5Q146 318 174 318H275Q303 318 332.5 320.5Q362 323 388 336V198Q363 207 334.5 211.0Q306 215 276 215H173Q143 215 114.5 211.0Q86 207 61 198Z"/>
    <path id="g13" d="M73 652Q129 654 181.5 674.5Q234 695 301 737Q325 716 344.0 702.5Q363 689 382.0 680.5Q401 672 422.5 668.0Q444 664 472 662V109Q429 99 396.0 81.0Q363 63 338.0 42.5Q313 22 295.5 3.0Q278 -16 266 -28Q247 -10 218.5 13.0Q190 36 160.0 57.5Q130 79 102.5 96.0Q75 113 58 119Q63 131 66.5 159.0Q70 187 72.0 225.0Q74 263 75.0 307.5Q76 352 76 398Q76 431 75.5 468.0Q75 505 74.5 539.5Q74 574 73.5 603.5Q73 633 73 652ZM331 582Q305 594 275.0 605.5Q245 617 210 642Q211 608 212.0 547.0Q213 486 213 411Q213 357 212.0 303.5Q211 250 208 196Q210 194 224.5 185.5Q239 177 258.0 165.5Q277 154 296.5 142.0Q316 130 329 121Z"/>
  </defs>
  <g fill="#FFFFFF" transform="translate(50.112 44.050) scale(0.025000 -0.025000)">
    <use href="#g0" transform="translate(0 0)"/>
    <use href="#g1" transform="translate(623 0)"/>
    <use href="#g1" transform="translate(1071 0)"/>
    <use href="#g2" transform="translate(1519 0)"/>
    <use href="#g3" transform="translate(1790 0)"/>
    <use href="#g4" transform="translate(2251 0)"/>
    <use href="#g5" transform="translate(2711 0)"/>
    <use href="#g6" transform="translate(2976 0)"/>
    <use href="#g4" transform="translate(3454 0)"/>
    <use href="#g7" transform="translate(3914 0)"/>
    <use href="#g3" transform="translate(4262 0)"/>
    <use href="#g4" transform="translate(4723 0)"/>
    <use href="#g9" transform="translate(5408 0)"/>
    <use href="#g10" transform="translate(5912 0)"/>
    <use href="#g11" transform="translate(6197 0)"/>
    <use href="#g12" transform="translate(6614 0)"/>
    <use href="#g11" transform="translate(7063 0)"/>
    <use href="#g13" transform="translate(7480 0)"/>
  </g>
</svg>
