<svg xmlns="http://www.w3.org/2000/svg" viewBox="0 0 300 70" width="300" height="70" role="img">
  <title>Proverbs 1:7</title>
  <defs>
    <path id="g0" d="M475 212Q433 227 379.5 230.0Q326 233 263 234V193Q263 141 281.5 96.0Q300 51 335 29Q292 0 268.0 -33.0Q244 -66 221 -108Q204 -66 164.5 -30.0Q125 6 80 29Q100 58 110.0 100.5Q120 143 120 188Q120 239 108.5 283.0Q97 327 76 349Q105 391 114.5 442.5Q124 494 124 546Q124 560 123.5 574.0Q123 588 122 602Q87 613 62.0 641.0Q37 669 32 720Q66 715 94.0 712.0Q122 709 148 709Q195 709 239.5 722.0Q284 735 342 769Q353 760 385.5 746.0Q418 732 462.0 719.0Q506 706 555.0 696.5Q604 687 648 687Q662 687 675.0 688.0Q688 689 702 691Q697 680 689.0 665.0Q681 650 670.5 635.0Q660 620 646.0 606.0Q632 592 616 582Q611 550 608.5 519.0Q606 488 606 459Q606 417 613.0 387.0Q620 357 638 321Q606 312 582.0 301.5Q558 291 539.5 278.0Q521 265 505.5 248.5Q490 232 475 212ZM482 366Q481 380 480.5 406.0Q480 432 479.0 462.0Q478 492 477.5 522.5Q477 553 476 576Q444 582 416.0 589.0Q388 596 362.5 603.5Q337 611 312.5 618.5Q288 626 262 633Q261 600 261.0 568.0Q261 536 261 505Q261 463 261.0 425.5Q261 388 262 350Q272 351 283.5 351.5Q295 352 308 352Q328 352 350.0 350.5Q372 349 392.0 346.5Q412 344 427.5 340.0Q443 336 451 331Q456 342 465.0 351.5Q474 361 482 366Z"/>
    <path id="g1" d="M200 321Q223 358 243.0 399.0Q263 440 280 486Q299 474 334.0 461.5Q369 449 411 439Q406 397 393.0 362.5Q380 328 360 305L293 340H281L200 226V88Q200 53 212.5 37.5Q225 22 257 17V0H43V15Q70 25 70 79V428L33 444V455Q68 460 109.0 468.5Q150 477 182 485L200 455Z"/>
    <path id="g2" d="M214 484Q283 461 329.0 453.0Q375 445 414 445Q436 445 447.5 445.5Q459 446 470 448Q458 383 458 295Q458 187 476 85Q451 82 423.0 72.0Q395 62 367.0 47.0Q339 32 313.0 12.5Q287 -7 266 -28Q255 -19 228.0 -9.5Q201 0 169.0 8.0Q137 16 105.0 21.0Q73 26 52 26Q46 26 40.5 25.5Q35 25 30 24Q44 36 50.5 71.5Q57 107 57 164Q57 193 55.0 227.5Q53 262 49.5 293.0Q46 324 42.0 346.0Q38 368 34 373Q73 380 121.0 409.5Q169 439 214 484ZM334 357Q288 361 244.0 370.5Q200 380 177 392Q182 350 184.0 313.5Q186 277 186 240Q186 211 184.5 174.5Q183 138 181 103Q215 99 256.0 92.0Q297 85 332 74Z"/>
    <path id="g3" d="M240 -28Q211 -7 168.0 12.0Q125 31 79 42Q80 54 81.0 69.5Q82 85 82.5 101.5Q83 118 83.5 133.5Q84 149 84 160Q84 251 70.5 313.0Q57 375 37 408L8 414V431Q25 433 49.0 438.5Q73 444 96.5 451.5Q120 459 140.0 467.5Q160 476 170 484Q194 449 203.5 369.0Q213 289 213 181Q213 160 213.0 138.5Q213 117 212 94L262 67H268Q282 91 292.5 127.5Q303 164 310.5 204.0Q318 244 322.0 282.5Q326 321 326 350Q326 390 317.5 410.0Q309 430 292 438L293 454Q332 457 372.0 464.5Q412 472 451 484Q449 481 449.0 477.0Q449 473 449 468Q449 436 453.0 407.5Q457 379 471 364L374 68L250 -28Z"/>
    <path id="g4" d="M236 -32Q217 -18 189.0 -6.0Q161 6 131.5 14.5Q102 23 74.5 28.0Q47 33 29 33Q37 46 43.0 69.5Q49 93 52.5 120.5Q56 148 57.5 177.0Q59 206 59 230Q59 291 51.5 331.5Q44 372 37 395Q80 403 115.5 426.0Q151 449 186 484Q227 476 287.0 470.5Q347 465 406 463Q403 445 403 418Q403 397 405.0 372.5Q407 348 410.0 324.0Q413 300 418.0 278.0Q423 256 429 240Q368 235 305.0 226.5Q242 218 182 208Q181 179 178.0 151.0Q175 123 173 102Q185 97 203.5 93.0Q222 89 243.0 85.5Q264 82 284.0 79.5Q304 77 318 76Q323 107 342.5 129.0Q362 151 409 165Q408 153 408.0 141.5Q408 130 408 119Q408 85 410.5 65.5Q413 46 420 27Q401 25 375.0 19.5Q349 14 323.0 5.5Q297 -3 273.5 -12.5Q250 -22 236 -32ZM172 394Q177 352 179.5 320.0Q182 288 183 261L300 290Q295 310 291.5 332.0Q288 354 288 377Q265 377 232.5 381.5Q200 386 172 394Z"/>
    <path id="g5" d="M288 69Q299 80 316.0 93.5Q333 107 347 114Q345 136 344.5 173.5Q344 211 344 245Q344 277 345.5 309.0Q347 341 349 368Q328 367 305.5 362.5Q283 358 262.0 352.0Q241 346 223.0 338.5Q205 331 194 324V264Q194 209 192.5 163.0Q191 117 185 89Q204 88 235.0 82.0Q266 76 288 69ZM64 605Q64 630 63.0 650.0Q62 670 58.5 687.0Q55 704 49.0 720.0Q43 736 34 753Q54 746 81 746Q114 746 150.5 757.0Q187 768 229 788Q209 764 201.5 724.0Q194 684 194 632V401Q212 413 234.0 425.5Q256 438 281.0 449.5Q306 461 332.0 470.0Q358 479 384 485Q408 459 436.0 442.0Q464 425 493 417Q482 375 480.0 337.5Q478 300 478 262Q478 215 479.0 180.0Q480 145 482.0 120.0Q484 95 487.0 79.5Q490 64 495 55Q473 51 447.0 43.0Q421 35 394.0 24.0Q367 13 340.5 -0.5Q314 -14 291 -30Q246 -16 205.0 -6.5Q164 3 132 3Q110 3 82.5 -1.0Q55 -5 34 -13Q52 20 58.0 84.0Q64 148 64 259Z"/>
    <path id="g6" d="M190 403Q188 387 187.5 372.0Q187 357 187 337Q187 317 188.0 297.0Q189 277 191 261Q210 268 230.5 273.0Q251 278 276.5 282.0Q302 286 334.0 289.0Q366 292 409 295Q406 260 406 193Q406 136 408.0 91.5Q410 47 415 24Q384 24 352.0 20.0Q320 16 291.0 9.0Q262 2 237.0 -8.0Q212 -18 195 -30Q183 -19 168.5 -11.0Q154 -3 134.0 2.5Q114 8 87.0 11.5Q60 15 23 17Q25 48 35.5 80.5Q46 113 62 133Q85 133 134.0 116.0Q183 99 264 63Q270 95 273.0 121.5Q276 148 276 177Q276 195 276.0 203.0Q276 211 275 218Q231 214 173.0 203.5Q115 193 64 179Q68 222 69.0 245.5Q70 269 70 288Q70 333 65.5 367.0Q61 401 51 430Q89 430 133.0 443.0Q177 456 243 484Q306 452 431 443Q413 400 390.0 380.5Q367 361 333 361Q318 361 299.0 364.0Q280 367 260.5 373.0Q241 379 222.5 386.5Q204 394 190 403Z"/>
    <path id="g8" d="M308 172Q308 132 325.0 118.0Q342 104 365 104Q382 104 393 108Q385 98 368.0 84.0Q351 70 331.5 54.5Q312 39 292.5 24.0Q273 9 260 -2Q243 6 219.0 25.0Q195 44 171 56V605Q160 579 131.0 565.0Q102 551 69 551Q32 551 0 568Q26 576 48.0 593.5Q70 611 88.0 634.5Q106 658 120.0 684.5Q134 711 144 736Q162 715 184.0 702.5Q206 690 229.0 682.5Q252 675 272.5 671.0Q293 667 308 664Z"/>
    <path id="g9" d="M48 22Q65 51 89.5 79.5Q114 108 144 124Q150 116 162.5 105.0Q175 94 189.5 83.0Q204 72 217.5 62.5Q231 53 238 49Q204 25 180.5 2.5Q157 -20 140 -54Q134 -47 121.5 -36.5Q109 -26 95.0 -15.0Q81 -4 68.0 6.0Q55 16 48 22ZM48 353Q65 382 89.5 410.5Q114 439 144 455Q150 447 162.5 436.0Q175 425 189.5 414.0Q204 403 217.5 393.5Q231 384 238 380Q204 356 180.5 333.5Q157 311 140 277Q134 284 121.5 294.5Q109 305 95.0 316.0Q81 327 68.0 337.0Q55 347 48 353Z"/>
    <path id="g10" d="M330 199Q341 179 357.5 166.0Q374 153 394 145Q377 143 359.0 131.0Q341 119 324.5 99.0Q308 79 296.0 53.0Q284 27 280 -2Q249 13 219.5 34.5Q190 56 166.5 82.5Q143 109 129.0 140.0Q115 171 115 204Q115 258 140.5 314.5Q166 371 201.5 422.5Q237 474 276.0 517.0Q315 560 342 588Q309 580 277.5 574.0Q246 568 212 568Q188 568 163.0 572.0Q138 576 110 585Q102 564 84.5 542.5Q67 521 40 521Q25 521 12 525Q27 552 37.5 574.5Q48 597 54.5 620.5Q61 644 65.5 671.5Q70 699 73 735Q118 714 170.0 704.0Q222 694 279 694Q337 694 393.5 703.5Q450 713 501 730Q489 695 489 666Q489 648 493 636Q440 566 397.0 510.0Q354 454 323.5 405.5Q293 357 276.5 313.5Q260 270 260 225Q260 209 269.0 193.0Q278 177 292 177Q300 177 308.0 184.5Q316 192 330 199Z"/>
  </defs>
  <g fill="#FFFFFF" transform="translate(82.000 43.500) scale(0.025000 -0.025000)">
    <use href="#g0" transform="translate(0 0)"/>
    <use href="#g1" transform="translate(692 0)"/>
    <use href="#g2" transform="translate(1107 0)"/>
    <use href="#g3" transform="translate(1618 0)"/>
    <use href="#g4" transform="translate(2113 0)"/>
    <use href="#g1" transform="translate(2574 0)"/>
    <use href="#g5" transform="translate(2989 0)"/>
    <use href="#g6" transform="translate(3520 0)"/>
    <use href="#g8" transform="translate(4205 0)"/>
    <use href="#g9" transform="translate(4622 0)"/>
    <use href="#g10" transform="translate(4907 0)"/>
  </g>
</svg>
