<svg xmlns="http://www.w3.org/2000/svg" viewBox="0 0 300 70" width="300" height="70" role="img">
  <title>Psalms 115:1-3</title>
  <defs>
    <path id="g0" d="M475 212Q433 227 379.5 230.0Q326 233 263 234V193Q263 141 281.5 96.0Q300 51 335 29Q292 0 268.0 -33.0Q244 -66 221 -108Q204 -66 164.5 -30.0Q125 6 80 29Q100 58 110.0 100.5Q120 143 120 188Q120 239 108.5 283.0Q97 327 76 349Q105 391 114.5 442.5Q124 494 124 546Q124 560 123.5 574.0Q123 588 122 602Q87 613 62.0 641.0Q37 669 32 720Q66 715 94.0 712.0Q122 709 148 709Q195 709 239.5 722.0Q284 735 342 769Q353 760 385.5 746.0Q418 732 462.0 719.0Q506 706 555.0 696.5Q604 687 648 687Q662 687 675.0 688.0Q688 689 702 691Q697 680 689.0 665.0Q681 650 670.5 635.0Q660 620 646.0 606.0Q632 592 616 582Q611 550 608.5 519.0Q606 488 606 459Q606 417 613.0 387.0Q620 357 638 321Q606 312 582.0 301.5Q558 291 539.5 278.0Q521 265 505.5 248.5Q490 232 475 212ZM482 366Q481 380 480.5 406.0Q480 432 479.0 462.0Q478 492 477.5 522.5Q477 553 476 576Q444 582 416.0 589.0Q388 596 362.5 603.5Q337 611 312.5 618.5Q288 626 262 633Q261 600 261.0 568.0Q261 536 261 505Q261 463 261.0 425.5Q261 388 262 350Q272 351 283.5 351.5Q295 352 308 352Q328 352 350.0 350.5Q372 349 392.0 346.5Q412 344 427.5 340.0Q443 336 451 331Q456 342 465.0 351.5Q474 361 482 366Z"/>
    <path id="g1" d="M190 403Q188 387 187.5 372.0Q187 357 187 337Q187 317 188.0 297.0Q189 277 191 261Q210 268 230.5 273.0Q251 278 276.5 282.0Q302 286 334.0 289.0Q366 292 409 295Q406 260 406 193Q406 136 408.0 91.5Q410 47 415 24Q384 24 352.0 20.0Q320 16 291.0 9.0Q262 2 237.0 -8.0Q212 -18 195 -30Q183 -19 168.5 -11.0Q154 -3 134.0 2.5Q114 8 87.0 11.5Q60 15 23 17Q25 48 35.5 80.5Q46 113 62 133Q85 133 134.0 116.0Q183 99 264 63Q270 95 273.0 121.5Q276 148 276 177Q276 195 276.0 203.0Q276 211 275 218Q231 214 173.0 203.5Q115 193 64 179Q68 222 69.0 245.5Q70 269 70 288Q70 333 65.5 367.0Q61 401 51 430Q89 430 133.0 443.0Q177 456 243 484Q306 452 431 443Q413 400 390.0 380.5Q367 361 333 361Q318 361 299.0 364.0Q280 367 260.5 373.0Q241 379 222.5 386.5Q204 394 190 403Z"/>
    <path id="g2" d="M180 94Q202 92 225.5 91.0Q249 90 284 82V223Q255 212 228.0 204.5Q201 197 182 195ZM438 413Q422 390 417.5 352.0Q413 314 413 241Q413 193 415.5 164.5Q418 136 423.0 119.5Q428 103 437.0 96.5Q446 90 459 87V76Q445 71 429.5 58.5Q414 46 399.0 31.0Q384 16 372.0 0.0Q360 -16 354 -28Q333 -14 316.0 9.0Q299 32 289 55L220 -28Q182 -5 136.5 7.0Q91 19 33 20Q43 46 45.0 85.5Q47 125 47 165Q47 189 44.0 210.5Q41 232 34 249Q56 246 82 246Q110 246 139.5 248.5Q169 251 196.0 256.0Q223 261 245.5 267.5Q268 274 283 282V381Q249 366 212.0 356.0Q175 346 151 346Q134 346 119.5 349.5Q105 353 93.0 363.5Q81 374 71.5 393.0Q62 412 55 442Q61 442 63.5 441.5Q66 441 78 441Q150 441 202.0 454.0Q254 467 283 484Q316 448 351.5 430.5Q387 413 438 413Z"/>
    <path id="g3" d="M18 -21Q44 -8 57.0 22.0Q70 52 70 92V605Q70 630 69.0 650.0Q68 670 64.5 687.0Q61 704 55.0 720.0Q49 736 40 753Q60 746 87 746Q120 746 156.5 757.0Q193 768 235 788Q215 764 207.5 724.0Q200 684 200 632V148Q200 107 203.0 80.0Q206 53 213.5 32.0Q221 11 235.0 -8.5Q249 -28 270 -55L264 -64Q237 -51 219.0 -43.5Q201 -36 188.5 -30.0Q176 -24 166.5 -17.5Q157 -11 147 0Q118 -12 84.5 -20.0Q51 -28 19 -28Z"/>
    <path id="g4" d="M549 -83Q555 -63 560.0 -33.5Q565 -4 568.0 25.5Q571 55 573.0 80.0Q575 105 575 116Q575 173 574.5 230.0Q574 287 574 344L561 358L449 310Q448 288 448.0 252.0Q448 216 448 179V88Q448 25 475 15V0H297V15Q309 20 316.5 35.5Q324 51 324 79V344L311 358L200 310V88Q200 25 227 15V0H43V15Q55 20 62.5 35.5Q70 51 70 79V428L33 444V455Q68 460 109.0 468.5Q150 477 182 485L200 455V373Q239 401 270.5 428.5Q302 456 335 494Q352 478 366.0 465.5Q380 453 394.5 443.0Q409 433 425.0 423.5Q441 414 462 404L456 377Q493 404 523.0 431.0Q553 458 585 494Q602 478 616.0 465.5Q630 453 644.5 443.0Q659 433 675.0 423.5Q691 414 712 404Q708 390 705.5 374.5Q703 359 701.5 335.0Q700 311 699.0 276.0Q698 241 698 189Q698 145 698.5 116.5Q699 88 700.0 70.0Q701 52 703.0 40.5Q705 29 707 19Q687 12 666.5 0.0Q646 -12 625.5 -27.0Q605 -42 587.0 -58.0Q569 -74 555 -89Z"/>
    <path id="g6" d="M308 172Q308 132 325.0 118.0Q342 104 365 104Q382 104 393 108Q385 98 368.0 84.0Q351 70 331.5 54.5Q312 39 292.5 24.0Q273 9 260 -2Q243 6 219.0 25.0Q195 44 171 56V605Q160 579 131.0 565.0Q102 551 69 551Q32 551 0 568Q26 576 48.0 593.5Q70 611 88.0 634.5Q106 658 120.0 684.5Q134 711 144 736Q162 715 184.0 702.5Q206 690 229.0 682.5Q252 675 272.5 671.0Q293 667 308 664Z"/>
    <path id="g7" d="M449 429Q449 419 449.0 388.5Q449 358 449.5 317.5Q450 277 450.5 232.0Q451 187 452.5 148.5Q454 110 455.5 83.5Q457 57 459 54Q429 54 393.5 48.0Q358 42 323.5 33.0Q289 24 259.5 12.5Q230 1 212 -10Q162 49 98 49Q60 49 24 33Q48 91 85.5 120.0Q123 149 165 149Q177 149 197.0 146.0Q217 143 238.0 138.0Q259 133 278.0 125.0Q297 117 308 107Q308 109 308.0 125.0Q308 141 307.5 165.5Q307 190 306.5 219.5Q306 249 305.5 278.5Q305 308 305.0 333.5Q305 359 305 376Q278 365 251.5 354.0Q225 343 203.0 333.5Q181 324 165.5 317.5Q150 311 145 309Q133 316 112.0 324.5Q91 333 71 342Q81 368 84.5 410.0Q88 452 88 500Q88 537 86.0 574.0Q84 611 81.0 643.0Q78 675 74.5 699.0Q71 723 68 734Q119 721 169.5 713.0Q220 705 271 705Q320 705 366.5 709.5Q413 714 461 735Q457 709 449.0 686.5Q441 664 425.0 646.5Q409 629 382.5 619.0Q356 609 316 609Q296 609 268.0 615.5Q240 622 212 630Q213 624 213.5 610.0Q214 596 214.5 580.0Q215 564 215.0 550.0Q215 536 215 530Q215 504 213.5 479.5Q212 455 212 429L368 487Z"/>
    <path id="g8" d="M48 22Q65 51 89.5 79.5Q114 108 144 124Q150 116 162.5 105.0Q175 94 189.5 83.0Q204 72 217.5 62.5Q231 53 238 49Q204 25 180.5 2.5Q157 -20 140 -54Q134 -47 121.5 -36.5Q109 -26 95.0 -15.0Q81 -4 68.0 6.0Q55 16 48 22ZM48 353Q65 382 89.5 410.5Q114 439 144 455Q150 447 162.5 436.0Q175 425 189.5 414.0Q204 403 217.5 393.5Q231 384 238 380Q204 356 180.5 333.5Q157 311 140 277Q134 284 121.5 294.5Q109 305 95.0 316.0Q81 327 68.0 337.0Q55 347 48 353Z"/>
    <path id="g9" d="M61 336Q87 323 116.5 320.5Q146 318 174 318H275Q303 318 332.5 320.5Q362 323 388 336V198Q363 207 334.5 211.0Q306 215 276 215H173Q143 215 114.5 211.0Q86 207 61 198Z"/>
    <path id="g10" d="M175 -10Q167 -2 152.0 9.5Q137 21 119.0 32.0Q101 43 82.0 51.5Q63 60 47 63Q53 84 55.0 102.0Q57 120 57 136Q57 151 55.5 163.0Q54 175 52 186Q58 187 64.0 187.5Q70 188 76 188Q112 188 147.0 168.5Q182 149 211 96L300 117Q300 119 299.5 134.5Q299 150 299.0 171.5Q299 193 298.0 218.0Q297 243 297.0 265.0Q297 287 296.5 302.5Q296 318 296 321L195 380L155 357L114 410L155 456L195 430L290 469Q290 495 288.5 519.5Q287 544 287 570Q287 594 290 620Q271 603 247.0 595.0Q223 587 197 587Q149 587 106.0 609.5Q63 632 41 674Q63 678 89.0 684.0Q115 690 140.0 697.5Q165 705 187.5 714.5Q210 724 227 735Q272 703 324.0 684.0Q376 665 430 665Q433 665 436.5 665.5Q440 666 444 666Q438 648 434.0 622.5Q430 597 427.0 568.0Q424 539 423.0 509.0Q422 479 422 452Q402 446 387.5 441.0Q373 436 360.0 430.5Q347 425 333.0 419.5Q319 414 301 407Q322 395 344.5 385.5Q367 376 385.5 369.0Q404 362 416.0 357.0Q428 352 428 349Q428 339 429.0 314.0Q430 289 432.0 257.5Q434 226 436.5 191.5Q439 157 441.5 127.5Q444 98 447.0 77.5Q450 57 452 54Q422 54 382.0 48.0Q342 42 302.0 33.0Q262 24 227.5 12.5Q193 1 175 -10Z"/>
  </defs>
  <g fill="#FFFFFF" transform="translate(70.862 43.500) scale(0.025000 -0.025000)">
    <use href="#g0" transform="translate(0 0)"/>
    <use href="#g1" transform="translate(692 0)"/>
    <use href="#g2" transform="translate(1152 0)"/>
    <use href="#g3" transform="translate(1630 0)"/>
    <use href="#g4" transform="translate(1901 0)"/>
    <use href="#g1" transform="translate(2660 0)"/>
    <use href="#g6" transform="translate(3345 0)"/>
    <use href="#g6" transform="translate(3762 0)"/>
    <use href="#g7" transform="translate(4179 0)"/>
    <use href="#g8" transform="translate(4696 0)"/>
    <use href="#g6" transform="translate(4981 0)"/>
    <use href="#g9" transform="translate(5398 0)"/>
    <use href="#g10" transform="translate(5847 0)"/>
  </g>
</svg>
