<svg xmlns="http://www.w3.org/2000/svg" viewBox="0 0 600 120" width="600" height="120" role="img">
  <title>Soli Deo Gloria</title>
  <defs>
    <path id="g0" d="M1382 1348Q1405 1376 1428.5 1357.5Q1452 1339 1425 1313Q1349 1241 1298.5 1194.5Q1248 1148 1205 1124Q1127 1079 1052.5 1097.5Q978 1116 842 1185Q700 1257 584.0 1262.5Q468 1268 367 1171Q268 1076 238.5 980.5Q209 885 212 783Q219 543 425.5 381.5Q632 220 936 228Q1149 232 1303.0 324.0Q1457 416 1432 599Q1411 744 1282.0 753.5Q1153 763 996 663Q790 532 697.0 547.0Q604 562 439 789Q419 815 438.0 826.0Q457 837 475 810Q535 721 629.5 756.5Q724 792 838 858Q915 901 983.0 936.5Q1051 972 1156 947Q1256 922 1351.5 840.0Q1447 758 1477 632Q1502 522 1473.0 432.0Q1444 342 1396 270Q1307 135 1156.5 56.0Q1006 -23 813 -23Q528 -23 289.0 168.0Q50 359 56 696Q64 1173 770 1455Q804 1469 841 1451Q1151 1298 1249.5 1301.0Q1348 1304 1382 1348Z"/>
    <path id="g1" d="M388 -18Q373 -43 351 -18Q241 119 17 188Q-1 193 -0.5 204.0Q0 215 11 220Q75 242 75 353L72 863Q72 874 70.0 880.5Q68 887 71.5 892.5Q75 898 85 899Q351 921 558 1044Q567 1049 574.5 1047.0Q582 1045 583 1033Q600 925 689 821Q738 761 770.5 657.0Q803 553 796 484Q786 403 743.0 338.5Q700 274 645 220Q580 156 505.0 112.0Q430 68 388 -18ZM279 876 283 300Q283 285 295 279L472 169Q498 152 520 179Q615 281 606 424Q604 513 571.5 583.0Q539 653 491 707Q413 786 372 903Q370 908 363.0 911.5Q356 915 350 912Q320 901 290 893Q279 889 279 876Z"/>
    <path id="g2" d="M52 1314Q39 1328 51.5 1341.0Q64 1354 83 1336Q106 1308 130.5 1276.0Q155 1244 172 1210Q177 1200 186.5 1200.0Q196 1200 201 1208Q260 1308 365.0 1369.5Q470 1431 592 1427Q615 1426 616.0 1407.5Q617 1389 592 1389Q493 1389 433.5 1332.0Q374 1275 374 1124L373 258Q373 226 388 217L460 176Q485 167 529 224Q540 239 556.0 230.5Q572 222 555 204Q450 87 394 -26Q382 -47 358 -26Q309 37 257.0 73.5Q205 110 111 129Q95 131 94.5 143.5Q94 156 105 161Q130 170 150.5 194.5Q171 219 171 276L170 948Q170 1092 139.0 1175.0Q108 1258 52 1314Z"/>
    <path id="g3" d="M165 235 158 783Q158 802 152 814Q128 853 111 833L71 792Q55 774 40.5 788.0Q26 802 45 827Q89 882 124.0 937.0Q159 992 196 1046Q212 1065 233 1045Q275 994 315.0 955.5Q355 917 429 874Q450 866 447.5 855.0Q445 844 434 843Q408 833 388.0 808.5Q368 784 368 727V304Q368 202 406 179Q450 153 478 201Q488 220 502.5 209.5Q517 199 502 175Q472 128 446.0 80.5Q420 33 393 -14Q374 -42 346 -26Q256 17 210.5 79.0Q165 141 165 235ZM310 1422Q421 1422 411 1315Q405 1261 343.5 1206.5Q282 1152 246 1153Q210 1153 191.0 1210.0Q172 1267 176 1315Q179 1361 220.5 1391.5Q262 1422 310 1422Z"/>
    <path id="g5" d="M214 105Q188 88 174.0 106.0Q160 124 183 144Q355 303 491.0 347.0Q627 391 849 250Q1046 124 1198.0 141.5Q1350 159 1420 322Q1540 605 1349.5 883.0Q1159 1161 842 1236Q622 1288 402.0 1198.0Q182 1108 143 930Q95 716 234.5 619.0Q374 522 522 559Q541 564 560 573Q587 585 598.5 565.0Q610 545 582 530Q544 514 533 511Q391 466 219.0 560.0Q47 654 47 927Q47 1078 142.0 1201.5Q237 1325 385.0 1399.5Q533 1474 710.5 1485.5Q888 1497 1059 1444Q1244 1374 1369.5 1242.0Q1495 1110 1552.0 949.0Q1609 788 1592.5 616.0Q1576 444 1478 296Q1328 71 1113.0 -3.5Q898 -78 566 100Q482 145 394.5 163.0Q307 181 214 105ZM788 339Q760 325 749.0 343.5Q738 362 760 378Q875 456 801.5 540.0Q728 624 666 678Q461 853 532.0 982.0Q603 1111 760 1198Q788 1212 799.5 1192.5Q811 1173 786 1157Q637 1064 846 889Q1035 731 1013.0 591.0Q991 451 788 339Z"/>
    <path id="g6" d="M340 -28Q338 -4 314.5 8.0Q291 20 275 32Q160 110 112.5 222.5Q65 335 59 461Q47 746 213 895Q272 948 349.0 981.5Q426 1015 507 1036Q532 1041 544 1011L688 673Q698 646 681 639H679L269 480Q257 474 259 461Q308 239 423.0 176.5Q538 114 652 158Q672 167 677.5 155.0Q683 143 670 137Q589 96 515.5 53.0Q442 10 384 -37Q375 -43 357.5 -41.0Q340 -39 340 -28ZM247 537Q248 529 254.0 524.5Q260 520 269 524L482 604Q497 610 491 625L369 924Q360 946 333 930Q275 896 254.0 775.0Q233 654 247 537Z"/>
    <path id="g7" d="M1145 1457Q1205 1373 1281.0 1303.5Q1357 1234 1441 1171Q1449 1167 1453 1163Q1463 1144 1447 1133L1207 966Q1176 941 1216 937Q1357 932 1441.0 779.0Q1525 626 1517 505Q1501 289 1311.5 132.0Q1122 -25 870 -38Q546 -56 308.0 160.5Q70 377 61 689Q53 1023 225.5 1244.0Q398 1465 624 1465Q803 1465 875 1311Q883 1294 900 1305L1115 1463Q1132 1474 1145 1457ZM992 800Q965 799 933 792Q910 788 904.0 803.5Q898 819 918 831L1206 1031Q1223 1043 1207 1057Q1055 1174 962 1290Q953 1302 940 1293L826 1210Q718 1130 725.5 1032.0Q733 934 862 794Q1078 556 995.5 433.0Q913 310 727 211Q704 200 693.5 214.5Q683 229 702 246Q746 288 796.0 346.0Q846 404 667 623Q540 778 514.0 871.5Q488 965 523.5 1027.5Q559 1090 637.0 1136.0Q715 1182 797 1242L836 1271Q846 1278 842 1290Q798 1420 638 1417Q495 1413 404.5 1248.5Q314 1084 320 874Q332 480 502.0 255.5Q672 31 928 31Q1102 31 1195.5 161.5Q1289 292 1287 443Q1285 568 1207.5 684.0Q1130 800 992 800Z"/>
    <path id="g8" d="M392 750 391 265Q391 233 407 224L479 182Q502 168 549 231Q559 244 574.0 236.5Q589 229 574 211Q469 94 413 -19Q396 -42 376 -19Q320 46 271.5 80.0Q223 114 129 136Q111 141 111.0 152.0Q111 163 124 168Q191 179 190 283V706Q190 808 152 831Q108 860 80 810Q69 789 55.0 800.0Q41 811 56 835Q85 881 111.5 929.0Q138 977 166 1025Q183 1055 211 1036Q358 965 387 856Q390 846 399.0 843.5Q408 841 415 850L569 1027Q575 1033 583.0 1032.5Q591 1032 596 1024L701 823Q705 814 699 806L579 662Q572 655 563.5 656.0Q555 657 552 665L471 815Q467 821 458.5 822.5Q450 824 443 817L396 760Q392 756 392 750Z"/>
    <path id="g9" d="M534 141Q483 102 422.0 55.5Q361 9 309 -30Q291 -44 280.5 -42.0Q270 -40 272 -24Q272 -3 210 56Q47 209 53 454Q59 664 248 809Q306 853 356.5 902.0Q407 951 446 1021Q462 1052 490 1023Q642 851 794 820Q842 811 804 782Q757 748 753 698V696L756 239Q756 193 789.5 176.0Q823 159 862 202Q877 219 890.5 210.5Q904 202 891 180Q855 126 821.5 74.0Q788 22 765 -34L764 -35Q750 -58 730 -35Q719 -23 704 -19Q590 6 560 132Q558 138 550 144Q541 145 534 141ZM545 730Q483 747 400 826Q360 874 336 835Q230 677 253 486Q285 213 445 149Q446 149 447 148Q488 135 546 197Q550 203 550 208Q549 223 549 255L558 714Q558 726 545 730Z"/>
    <clipPath id="reveal" clipPathUnits="userSpaceOnUse"><rect x="44.287" y="0" width="0" height="120">
      <animate attributeName="width" values="0;511.427;511.427;0" keyTimes="0;0.6666667;0.8333333;1" dur="6000ms" repeatCount="indefinite"/>
    </rect></clipPath>
  </defs>
  <g clip-path="url(#reveal)">
  <g fill="#FFFFFF" transform="translate(42.105 88.146) scale(0.039062 -0.039062)">
    <use href="#g0" transform="translate(0 0)"/>
    <use href="#g1" transform="translate(1553 0)"/>
    <use href="#g2" transform="translate(2400 0)"/>
    <use href="#g3" transform="translate(2959 0)"/>
    <use href="#g5" transform="translate(4118 0)"/>
    <use href="#g6" transform="translate(5778 0)"/>
    <use href="#g1" transform="translate(6519 0)"/>
    <use href="#g7" transform="translate(7966 0)"/>
    <use href="#g2" transform="translate(9543 0)"/>
    <use href="#g1" transform="translate(10102 0)"/>
    <use href="#g8" transform="translate(10949 0)"/>
    <use href="#g3" transform="translate(11692 0)"/>
    <use href="#g9" transform="translate(12251 0)"/>
  </g>
  </g>
</svg>
